<svg width="85" height="33" viewBox="0 0 85 33" fill="none" xmlns="http://www.w3.org/2000/svg">
<path d="M9.41513 26.258H5.75151V11.3532H0.230469V7.62373H14.9234V11.3532H9.41513V26.258ZM20.6238 8.55933C20.6238 8.88854 20.5597 9.19608 20.4315 9.48195C20.3121 9.76784 20.1456 10.0191 19.932 10.2356C19.7185 10.4436 19.4666 10.6125 19.1763 10.7424C18.8944 10.8637 18.5913 10.9244 18.2667 10.9244C17.9422 10.9244 17.6348 10.8637 17.3444 10.7424C17.0626 10.6125 16.815 10.4436 16.6015 10.2356C16.3965 10.0191 16.23 9.76784 16.1019 9.48195C15.9823 9.19608 15.9225 8.88854 15.9225 8.55933C15.9225 8.23881 15.9823 7.9356 16.1019 7.64972C16.23 7.35517 16.3965 7.10395 16.6015 6.89603C16.815 6.67945 17.0626 6.51053 17.3444 6.38925C17.6348 6.25931 17.9422 6.19434 18.2667 6.19434C18.5913 6.19434 18.8944 6.25931 19.1763 6.38925C19.4666 6.51053 19.7185 6.67945 19.932 6.89603C20.1456 7.10395 20.3121 7.35517 20.4315 7.64972C20.5597 7.9356 20.6238 8.23881 20.6238 8.55933ZM20.0218 26.258H16.499V12.3408H20.0218V26.258ZM34.689 15.1086L32.1269 17.7205C31.9989 17.3567 31.8238 17.0318 31.6017 16.7459C31.3798 16.4514 31.1279 16.2045 30.846 16.0052C30.5728 15.806 30.2739 15.6544 29.9493 15.5504C29.6248 15.4465 29.2917 15.3945 28.9501 15.3945C28.4719 15.3945 28.0193 15.4941 27.5924 15.6934C27.1738 15.8926 26.8065 16.1742 26.4907 16.538C26.1832 16.8932 25.9398 17.3177 25.7605 17.8116C25.5812 18.3053 25.4915 18.8511 25.4915 19.4488C25.4915 19.9338 25.5812 20.3887 25.7605 20.8133C25.9398 21.2377 26.1832 21.6103 26.4907 21.9307C26.8065 22.2513 27.1738 22.5025 27.5924 22.6844C28.0193 22.8664 28.4719 22.9572 28.9501 22.9572C29.2917 22.9572 29.6205 22.9097 29.9365 22.8144C30.2525 22.7192 30.5471 22.5848 30.8204 22.4115C31.1022 22.2297 31.3498 22.013 31.5634 21.7618C31.7853 21.5019 31.9648 21.2161 32.1014 20.9042L34.6633 23.5161C34.3388 23.984 33.963 24.4041 33.5361 24.7765C33.1175 25.1491 32.6607 25.4652 32.1654 25.7252C31.6787 25.9851 31.162 26.1801 30.6155 26.3099C30.0775 26.4485 29.5223 26.5179 28.9501 26.5179C27.9852 26.5179 27.0757 26.3358 26.2217 25.9721C25.3762 25.5996 24.6333 25.0928 23.9928 24.4517C23.3607 23.8106 22.8612 23.0612 22.4939 22.2036C22.1268 21.3459 21.9432 20.4278 21.9432 19.4488C21.9432 18.3832 22.1268 17.387 22.4939 16.46C22.8612 15.5331 23.3607 14.7274 23.9928 14.043C24.6333 13.35 25.3762 12.8042 26.2217 12.4057C27.0757 12.0072 27.9852 11.808 28.9501 11.808C29.5223 11.808 30.0817 11.8816 30.6282 12.0289C31.1833 12.1762 31.7086 12.3927 32.2039 12.6786C32.7078 12.9558 33.1688 13.298 33.5873 13.7052C34.0142 14.1124 34.3815 14.5802 34.689 15.1086ZM39.9282 26.258H36.4054V6.80507H39.9282V19.0719L45.1417 12.3668H49.1642L44.6167 18.1623L49.1642 26.258H45.1417L42.3621 21.2031L39.9282 24.4777V26.258ZM54.6724 8.55933C54.6724 8.88854 54.6082 9.19608 54.4802 9.48195C54.3605 9.76784 54.194 10.0191 53.9807 10.2356C53.7671 10.4436 53.5151 10.6125 53.2248 10.7424C52.943 10.8637 52.6399 10.9244 52.3153 10.9244C51.9909 10.9244 51.6834 10.8637 51.3931 10.7424C51.1111 10.6125 50.8635 10.4436 50.6501 10.2356C50.4451 10.0191 50.2786 9.76784 50.1504 9.48195C50.031 9.19608 49.9711 8.88854 49.9711 8.55933C49.9711 8.23881 50.031 7.9356 50.1504 7.64972C50.2786 7.35517 50.4451 7.10395 50.6501 6.89603C50.8635 6.67945 51.1111 6.51053 51.3931 6.38925C51.6834 6.25931 51.9909 6.19434 52.3153 6.19434C52.6399 6.19434 52.943 6.25931 53.2248 6.38925C53.5151 6.51053 53.7671 6.67945 53.9807 6.89603C54.194 7.10395 54.3605 7.35517 54.4802 7.64972C54.6082 7.9356 54.6724 8.23881 54.6724 8.55933ZM54.0702 26.258H50.5476V12.3408H54.0702V26.258ZM63.6264 26.258C62.781 26.258 61.9868 26.0977 61.2438 25.7771C60.5008 25.448 59.8476 25.0018 59.2839 24.4387C58.7288 23.8669 58.2889 23.2042 57.9645 22.4505C57.6484 21.6969 57.4905 20.8912 57.4905 20.0336V15.9013H55.7868V12.3668H57.4905V6.80507H60.9748V12.3668H66.278V15.9013H60.9748V20.0336C60.9748 20.4061 61.043 20.7569 61.1798 21.0862C61.3164 21.4066 61.5042 21.6882 61.7433 21.9307C61.9826 22.1734 62.2643 22.3682 62.5887 22.5155C62.9134 22.6542 63.2591 22.7234 63.6264 22.7234H66.278V26.258H63.6264ZM78.9598 26.258H67.5207L73.2979 15.9013H67.5207V12.3668H78.9598L73.1826 22.7234H78.9598V26.258Z" fill="#5F2EEA"/>
<path d="M83.5582 15.4791C83.5554 15.4776 83.5524 15.4767 83.5496 15.4753L82.4056 14.8048C82.3344 14.8872 82.2372 14.9419 82.1305 14.9597C82.024 14.9775 81.9147 14.9573 81.8211 14.9025C81.7276 14.8477 81.6555 14.7616 81.6174 14.659C81.5794 14.5564 81.5775 14.4436 81.6123 14.3398L80.4602 13.6647C80.4293 13.6467 80.3926 13.6418 80.3581 13.6511C80.3237 13.6605 80.2941 13.6834 80.2763 13.7147L76.8561 19.7243L76.856 19.7246C76.847 19.7401 76.8413 19.7573 76.839 19.775C76.8367 19.7929 76.838 19.8108 76.8425 19.8282C76.847 19.8456 76.8549 19.8618 76.8658 19.8761C76.8764 19.8903 76.8899 19.9022 76.9053 19.9113L78.0577 20.5855C78.129 20.5033 78.2261 20.4487 78.3326 20.4307C78.4391 20.413 78.5484 20.4332 78.642 20.4879C78.7356 20.5427 78.8075 20.6286 78.8456 20.7309C78.8839 20.8333 78.8858 20.946 78.8515 21.0498L79.9891 21.7153C79.9936 21.7188 79.998 21.7225 80.0031 21.7256C80.0185 21.7346 80.0352 21.7403 80.0529 21.7428C80.0704 21.7451 80.0882 21.7438 80.1052 21.7392C80.1223 21.7346 80.1383 21.7266 80.1524 21.7156C80.1664 21.7048 80.1781 21.6911 80.1871 21.6755V21.6757L83.6073 15.6658C83.6163 15.6502 83.622 15.6331 83.6243 15.6153C83.6266 15.5975 83.6255 15.5794 83.6208 15.5621C83.6163 15.5448 83.6084 15.5285 83.5977 15.5143C83.5869 15.5 83.5734 15.4881 83.5582 15.4791ZM82.5774 15.9457L79.9111 20.6305C79.9022 20.6461 79.8904 20.6598 79.8764 20.6706C79.8624 20.6816 79.8464 20.6896 79.8294 20.6942C79.8123 20.6988 79.7944 20.7001 79.7769 20.6978C79.7594 20.6955 79.7425 20.6896 79.7271 20.6806L77.9354 19.6311C77.92 19.6221 77.9066 19.6102 77.8959 19.596C77.8851 19.5818 77.8772 19.5655 77.8726 19.5483C77.8681 19.5309 77.8669 19.5128 77.8691 19.495C77.8716 19.4773 77.8772 19.4601 77.8861 19.4446L80.5524 14.7597C80.5703 14.7284 80.5996 14.7055 80.6341 14.6961C80.6685 14.6868 80.7053 14.6917 80.7362 14.7098L82.5282 15.7593C82.5434 15.7682 82.5569 15.7801 82.5676 15.7944C82.5784 15.8086 82.5863 15.8248 82.5908 15.8421C82.5954 15.8594 82.5966 15.8775 82.5943 15.8952C82.5919 15.913 82.5863 15.9301 82.5774 15.9457Z" fill="#5F2EEA"/>
<path d="M81.1411 17.5699L80.5735 17.4628L80.4938 16.9124C80.4925 16.9043 80.4889 16.8967 80.4833 16.8908C80.4777 16.8849 80.4703 16.8809 80.4625 16.8794C80.4544 16.8778 80.4462 16.8788 80.4389 16.8822C80.4315 16.8856 80.4254 16.8913 80.4212 16.8984L80.1461 17.382L79.5925 17.2776C79.5847 17.2761 79.5764 17.2772 79.5691 17.2806C79.5618 17.284 79.5556 17.2896 79.5516 17.2967C79.5476 17.3038 79.5458 17.312 79.5465 17.3201C79.5472 17.3283 79.5504 17.336 79.5556 17.3423L79.9217 17.7764L79.6462 18.2599C79.6422 18.2671 79.6405 18.2753 79.6413 18.2835C79.642 18.2918 79.6454 18.2996 79.6506 18.3058C79.6558 18.312 79.663 18.3163 79.6709 18.3182C79.6788 18.3202 79.687 18.3197 79.6945 18.3166L80.2041 18.1115L80.5795 18.5567C80.5847 18.5627 80.5917 18.5672 80.5996 18.5691C80.6073 18.5711 80.6155 18.5705 80.623 18.5677C80.6305 18.5649 80.6368 18.5597 80.6414 18.553C80.6459 18.5462 80.6484 18.5382 80.6482 18.5301L80.6384 17.9332L81.153 17.6433C81.1599 17.6393 81.1657 17.6332 81.1692 17.6259C81.1727 17.6185 81.1739 17.6103 81.1727 17.6022C81.1713 17.5942 81.1675 17.5868 81.1619 17.581C81.1563 17.5753 81.1489 17.5714 81.1411 17.5699Z" fill="#5F2EEA"/>
</svg>
