<svg width="50" height="16" viewBox="0 0 50 16" fill="none" xmlns="http://www.w3.org/2000/svg">
<path d="M27.1701 13.8316C27.1186 14.771 26.6873 15.4136 25.8603 15.8036C25.62 15.9163 25.3961 15.827 25.2869 15.5883C25.2024 15.4036 25.2992 15.1943 25.5252 15.0963C26.111 14.843 26.3679 14.3236 26.3569 13.8343C26.3432 13.239 25.9764 12.785 25.3988 12.5896C24.8425 12.4023 24.2614 12.5843 23.8507 13.0756C23.5355 13.453 23.5087 14.105 23.7855 14.5416C23.9386 14.7843 24.1413 14.967 24.4077 15.089C24.6591 15.2036 24.7477 15.4156 24.6461 15.6256C24.5424 15.8396 24.2965 15.9083 24.0499 15.787C23.3878 15.463 22.9538 14.959 22.8212 14.2436C22.6117 13.113 23.3391 12.099 24.3871 11.8176C25.6261 11.485 26.8157 12.245 27.0932 13.3443C27.1364 13.5176 27.1495 13.699 27.1701 13.8316Z" fill="#00AA11"/>
<path d="M30.333 12.6838C30.3399 12.5938 30.3447 12.5225 30.3509 12.4405C30.5652 12.4405 30.7712 12.4405 30.9903 12.4405C30.9951 12.4858 31.004 12.5292 31.004 12.5725C31.0047 13.3058 31.0082 14.0398 31.0027 14.7738C30.9986 15.2265 30.8186 15.5992 30.4017 15.8272C29.8797 16.1138 29.0652 16.0238 28.5988 15.6432C28.5549 15.6072 28.513 15.5692 28.4615 15.5245C28.6002 15.3918 28.7362 15.2618 28.8859 15.1192C29.1187 15.3005 29.3797 15.3918 29.6847 15.3832C30.1551 15.3692 30.3873 15.1192 30.3262 14.6325C29.9319 14.9318 29.4979 14.9432 29.0562 14.7998C28.7932 14.7145 28.5858 14.5438 28.4381 14.3052C28.127 13.8018 28.2073 13.1632 28.638 12.7732C29.0995 12.3552 29.7973 12.3125 30.333 12.6838ZM30.3062 13.6592C30.3062 13.2338 30.0686 13.0018 29.6359 13.0058C29.2286 13.0092 28.9546 13.2685 28.9395 13.6285C28.9203 14.0985 29.2348 14.3098 29.651 14.3045C30.0789 14.2985 30.3062 14.0792 30.3062 13.6592Z" fill="black"/>
<path d="M41.1799 12.433C40.7856 12.7937 40.4264 13.123 40.0617 13.457C40.4326 13.9357 40.7952 14.4037 41.1826 14.9037C40.9175 14.9037 40.6984 14.9104 40.48 14.899C40.4292 14.8964 40.3687 14.8437 40.3344 14.799C40.1325 14.5377 39.9381 14.271 39.7403 14.007C39.7073 13.9624 39.6716 13.9197 39.6126 13.8437C39.4704 14.0017 39.2891 14.1257 39.2273 14.2924C39.1627 14.4664 39.2128 14.6804 39.2128 14.9044C39.0947 14.9044 38.9924 14.9044 38.89 14.9044C38.7925 14.9044 38.6943 14.9044 38.581 14.9044C38.5762 14.8304 38.57 14.771 38.57 14.711C38.5693 13.7857 38.5741 12.8597 38.5645 11.9337C38.5631 11.7557 38.6194 11.7044 38.7925 11.7224C38.9237 11.7364 39.0569 11.725 39.2108 11.725C39.2108 12.2877 39.2108 12.8304 39.2108 13.419C39.4106 13.2437 39.5775 13.1004 39.741 12.9537C39.9079 12.805 40.07 12.6517 40.2375 12.5044C40.2739 12.4724 40.3241 12.437 40.3694 12.4357C40.6222 12.4297 40.8756 12.433 41.1799 12.433Z" fill="black"/>
<path d="M36.2444 13.8783C36.2843 14.1397 36.5418 14.3397 36.8385 14.3623C37.0892 14.3817 37.3241 14.3463 37.5288 14.1883C37.5618 14.163 37.6318 14.143 37.66 14.1597C37.7973 14.2417 37.9258 14.3363 38.07 14.435C37.6256 14.865 37.1195 14.983 36.5384 14.8437C36.0652 14.7303 35.7225 14.4723 35.6112 14.0017C35.3701 12.977 36.1833 12.2997 37.1229 12.4543C37.6682 12.5437 38.0075 12.8543 38.1352 13.3717C38.1737 13.5263 38.1627 13.6923 38.1758 13.8783C37.8344 13.8783 37.5164 13.8783 37.1984 13.8783C36.8852 13.8783 36.5714 13.8783 36.2444 13.8783ZM37.5061 13.4063C37.4622 13.099 37.2101 12.9523 36.7863 12.9717C36.4828 12.985 36.2767 13.153 36.2616 13.4063C36.6737 13.4063 37.0844 13.4063 37.5061 13.4063Z" fill="black"/>
<path d="M32.7365 12.3977C33.4879 12.427 34.0463 12.881 34.1026 13.5884C34.1404 14.071 33.922 14.4584 33.4852 14.7184C32.9845 15.0164 32.1905 14.9364 31.7668 14.539C31.1308 13.9424 31.3251 12.8904 32.1397 12.5604C32.3286 12.4837 32.5367 12.451 32.7365 12.3977ZM33.4199 13.6697C33.4185 13.2684 33.1548 13.003 32.7558 13.0057C32.308 13.009 32.0738 13.289 32.0587 13.671C32.0442 14.0384 32.3684 14.333 32.7482 14.3304C33.1541 14.327 33.4213 14.0644 33.4199 13.6697Z" fill="black"/>
<path d="M34.4969 12.4343C34.727 12.4343 34.9296 12.4343 35.1604 12.4343C35.1604 12.4897 35.1604 12.543 35.1604 12.5963C35.1604 13.489 35.1604 14.3817 35.1597 15.2743C35.1597 15.7243 34.8891 15.9863 34.4248 15.9877C34.2462 15.9883 34.0669 15.9883 33.8691 15.9883C33.8691 15.8823 33.8691 15.7937 33.8691 15.705C33.8691 15.6157 33.8691 15.5257 33.8691 15.405C33.9886 15.405 34.0972 15.409 34.205 15.4037C34.4502 15.3923 34.4969 15.3437 34.4969 15.109C34.4969 14.2843 34.4969 13.4597 34.4969 12.635C34.4969 12.5737 34.4969 12.513 34.4969 12.4343Z" fill="black"/>
<path d="M24.1638 13.8411C24.1137 13.4797 24.5855 13.0451 24.986 13.0704C25.4296 13.0991 25.7964 13.4344 25.7936 13.8644C25.7909 14.2924 25.4077 14.6704 24.9667 14.6591C24.5251 14.6477 24.1377 14.3084 24.1638 13.8411Z" fill="#00AA11"/>
<path d="M8.81641 12.7336H9.50116C9.8741 12.7336 10.0946 12.9376 10.0946 13.265C10.0946 13.5976 9.87685 13.7923 9.50116 13.7923H9.02451V14.457H8.81641V12.7336ZM9.4888 13.6003C9.76009 13.6003 9.8844 13.4943 9.8844 13.265C9.8844 13.0363 9.75459 12.9256 9.4888 12.9256H9.02451V13.6003H9.4888Z" fill="black"/>
<path d="M10.8324 13.115C11.2128 13.115 11.467 13.393 11.467 13.8043C11.467 14.2157 11.2128 14.4937 10.8324 14.4937C10.4546 14.4937 10.2012 14.2157 10.2012 13.8043C10.2012 13.393 10.4546 13.115 10.8324 13.115ZM10.8324 13.295C10.5666 13.295 10.399 13.4917 10.399 13.8043C10.399 14.117 10.5666 14.3137 10.8324 14.3137C11.0988 14.3137 11.2692 14.117 11.2692 13.8043C11.2692 13.4917 11.0988 13.295 10.8324 13.295Z" fill="black"/>
<path d="M11.5918 13.1516H11.7869L12.03 14.1663H12.0355L12.3954 13.1516H12.5753L12.9359 14.1663H12.9407L13.1845 13.1516H13.3796L13.0575 14.4569H12.87L12.4895 13.3909H12.484L12.1014 14.4569H11.9132L11.5918 13.1516Z" fill="black"/>
<path d="M14.1313 13.115C14.4919 13.115 14.7323 13.3783 14.7323 13.7623V13.861H13.7103C13.7158 14.1123 13.8806 14.319 14.1265 14.319C14.3168 14.319 14.4232 14.2523 14.5372 14.0577L14.7021 14.1537C14.5881 14.3777 14.393 14.4937 14.1313 14.4937C13.7584 14.4937 13.5098 14.2157 13.5098 13.8043C13.5098 13.393 13.7666 13.115 14.1313 13.115ZM14.5324 13.7057C14.5297 13.585 14.4892 13.487 14.4157 13.4077C14.3422 13.329 14.2481 13.2897 14.1313 13.2897C13.9033 13.2897 13.7206 13.487 13.7158 13.7057H14.5324Z" fill="black"/>
<path d="M15.0137 13.1516H15.2012V13.2603H15.206C15.2568 13.179 15.3557 13.1296 15.4848 13.1296C15.5254 13.1296 15.5714 13.137 15.6194 13.1496L15.5762 13.349C15.5281 13.3343 15.4828 13.327 15.4443 13.327C15.285 13.327 15.2108 13.4303 15.2108 13.6736V14.457H15.0137V13.1516Z" fill="black"/>
<path d="M16.3325 13.115C16.6924 13.115 16.9335 13.3783 16.9335 13.7623V13.861H15.9115C15.9163 14.1123 16.0811 14.319 16.327 14.319C16.5173 14.319 16.6244 14.2523 16.7384 14.0577L16.9032 14.1537C16.7892 14.3777 16.5935 14.4937 16.3325 14.4937C15.9596 14.4937 15.7109 14.2157 15.7109 13.8043C15.7109 13.393 15.9671 13.115 16.3325 13.115ZM16.7329 13.7057C16.7309 13.585 16.6903 13.487 16.6168 13.4077C16.5427 13.329 16.4493 13.2897 16.3325 13.2897C16.1045 13.2897 15.9218 13.487 15.9163 13.7057H16.7329Z" fill="black"/>
<path d="M17.7697 13.115C17.9325 13.115 18.0767 13.1817 18.1653 13.2897H18.1708V12.6597H18.3686V14.457H18.1784V14.3263H18.1729C18.0843 14.4323 17.9346 14.4937 17.7697 14.4937C17.4201 14.4937 17.166 14.2103 17.166 13.8043C17.166 13.3983 17.4201 13.115 17.7697 13.115ZM18.1708 13.6763C18.1708 13.4643 17.9929 13.295 17.7697 13.295C17.5287 13.295 17.3638 13.4963 17.3638 13.8043C17.3638 14.1123 17.5287 14.3137 17.7828 14.3137C17.9957 14.3137 18.1708 14.1417 18.1708 13.9297V13.6763Z" fill="black"/>
<path d="M19.5782 14.3263V14.457H19.3887V12.6597H19.5858V13.2897H19.5913C19.6799 13.1817 19.8248 13.115 19.9869 13.115C20.3372 13.115 20.5906 13.3983 20.5906 13.8043C20.5906 14.2103 20.3372 14.4937 19.9869 14.4937C19.8221 14.4937 19.6723 14.4323 19.5837 14.3263H19.5782ZM19.9869 13.295C19.7637 13.295 19.5858 13.4643 19.5858 13.6763V13.9297C19.5858 14.1417 19.7609 14.3137 19.9738 14.3137C20.228 14.3137 20.3928 14.1123 20.3928 13.8043C20.3928 13.4963 20.228 13.295 19.9869 13.295Z" fill="black"/>
<path d="M21.1715 14.3456L20.6543 13.1516H20.8651L21.2731 14.1243H21.2779L21.6893 13.1516H21.8995L21.0932 15.0103H20.8878L21.1715 14.3456Z" fill="black"/>
<path d="M5.45536 0.00488281C8.46772 0.00488281 10.91 2.29288 10.91 5.11488C10.91 7.93688 8.46772 10.2249 5.45536 10.2249C2.44231 10.2249 0 7.93688 0 5.11488C0 2.29288 2.44231 0.00488281 5.45536 0.00488281Z" fill="#00AED6"/>
<path fill-rule="evenodd" clip-rule="evenodd" d="M8.63687 4.9571C8.59498 4.30644 8.00432 3.80777 7.30926 3.8371H3.86352C3.73783 3.8371 3.63618 3.74177 3.63618 3.62377C3.63618 3.50644 3.73783 3.4111 3.86352 3.4111H7.35459C7.33467 2.97044 7.01325 2.59177 6.55926 2.47444C5.5414 2.30377 4.49951 2.30377 3.48165 2.47444C2.90335 2.60777 2.47066 3.05844 2.39099 3.6111C2.23165 4.61377 2.23165 5.63244 2.39099 6.63444C2.51256 7.21977 3.00844 7.67244 3.63618 7.77177C4.89786 7.92044 6.17465 7.92044 7.43632 7.77177C7.99882 7.6651 8.42396 7.23244 8.49127 6.69844C8.60665 6.12444 8.65542 5.54044 8.63687 4.9571ZM7.5002 5.67244V5.85977C7.5002 5.9771 7.39855 6.07244 7.27286 6.07244C7.14717 6.07244 7.04553 5.9771 7.04553 5.85977V5.67244C6.97204 5.61244 6.93083 5.5251 6.9322 5.43377C6.9322 5.2571 7.08467 5.11444 7.27286 5.11444C7.46105 5.11444 7.61352 5.2571 7.61352 5.43377C7.61283 5.52444 7.57162 5.6111 7.5002 5.67244Z" fill="white"/>
<path d="M26.4483 4.5396C26.4559 3.6436 25.6867 2.9116 24.7299 2.90426C23.7732 2.8976 22.9923 3.6176 22.9847 4.5136C22.9772 5.4096 23.7464 6.14226 24.7031 6.14893C24.7121 6.14893 24.721 6.14893 24.7299 6.14893C25.6372 6.19493 26.4126 5.54226 26.4614 4.69226C26.4641 4.6416 26.4641 4.59026 26.4621 4.5396H26.4483ZM21.3027 4.5396C21.3027 2.83626 22.7389 1.5376 24.7299 1.5376C26.721 1.5376 28.1578 2.84426 28.1578 4.5396C28.1578 6.23426 26.7347 7.5456 24.7299 7.5456C22.7251 7.5456 21.3027 6.23827 21.3027 4.5396Z" fill="black"/>
<path d="M18.5751 4.85036C18.5751 5.55303 17.8114 6.1277 16.8437 6.1277C15.9543 6.21236 15.1603 5.60503 15.0703 4.7717C15.0614 4.6877 15.06 4.60303 15.0662 4.51836C15.0662 3.5897 15.7936 2.95103 16.9117 2.95103C17.821 2.95103 18.5751 3.53436 18.5751 4.19436V4.85036ZM18.6431 1.53303V2.2057C18.0903 1.73503 17.3574 1.49436 16.6115 1.5377C14.8478 1.55236 13.4316 2.90436 13.4474 4.55636C13.4639 6.20836 14.9069 7.5357 16.6706 7.52036C17.3966 7.55103 18.1033 7.29636 18.6205 6.8177V7.39236C18.6205 8.1717 17.9028 8.74236 16.957 8.74236C16.2352 8.79103 15.5236 8.55703 14.9934 8.09503L13.8883 9.0917C14.7166 9.85303 15.8423 10.2624 17.0023 10.2244C18.9392 10.2244 20.2661 9.00636 20.2661 7.38436V1.53303H18.6431Z" fill="black"/>
<path d="M29.1582 1.70773H30.7853V2.2104H30.8079C31.3416 1.7544 32.0463 1.51573 32.7674 1.54573C34.5387 1.6084 35.9206 3.0044 35.854 4.66307C35.7908 6.23507 34.4453 7.49507 32.7674 7.5544C32.0785 7.56907 31.4061 7.35707 30.867 6.95374V9.7984H29.1719L29.1582 1.70773ZM32.5037 2.95107C31.5943 2.95107 30.8539 3.54307 30.8539 4.1864V4.90574C30.8539 5.59107 31.5854 6.15774 32.5126 6.15774C33.4583 6.20307 34.264 5.5224 34.3127 4.63707C34.3615 3.75173 33.6349 2.99707 32.6891 2.95107C32.6307 2.9484 32.5717 2.9484 32.5126 2.95107H32.5037Z" fill="black"/>
<path d="M39.1085 3.99017C40.2225 3.8495 40.5542 3.70017 40.5542 3.41084C40.5542 3.03617 40.1318 2.81017 39.4766 2.81017C38.7713 2.75617 38.1291 3.19217 37.9629 3.83684L36.3633 3.5255C36.5906 2.3675 37.8633 1.5415 39.4313 1.5415C41.2046 1.5415 42.3042 2.39284 42.3042 3.77284V7.38817H40.7816V6.75817H40.7589C40.2424 7.30284 39.4849 7.59217 38.7088 7.5415C37.3674 7.5415 36.4354 6.8555 36.4354 5.83817C36.4354 4.82017 37.1991 4.23684 39.1085 3.99017ZM40.6909 4.59017H40.6682C40.5178 4.79484 40.2136 4.91417 39.3722 5.05017C38.377 5.22484 38.0089 5.40817 38.0089 5.74017C38.0089 6.07217 38.3042 6.23417 38.945 6.23417C39.9224 6.23417 40.6772 5.80817 40.6772 5.2675L40.6909 4.59017Z" fill="black"/>
<path d="M45.3713 7.0691L42.5664 1.70776H44.4352L46.2759 5.4211H46.3034L48.1213 1.70776H49.9991L45.7985 9.79843H43.9304L45.3713 7.0691Z" fill="black"/>
</svg>
