<svg width="35" height="14" viewBox="0 0 35 14" fill="none" xmlns="http://www.w3.org/2000/svg">
<path d="M16.5437 6.83479V10.9224H15.252V0.827825H18.6779C19.0868 0.819259 19.4933 0.892073 19.874 1.04207C20.2548 1.19206 20.6021 1.41626 20.8961 1.70173C21.1931 1.96986 21.4294 2.29871 21.5892 2.66616C21.7491 3.03361 21.8287 3.43115 21.8228 3.83206C21.8313 4.23514 21.7529 4.6353 21.5929 5.00512C21.433 5.37493 21.1953 5.70565 20.8961 5.97461C20.2971 6.54806 19.5576 6.83451 18.6779 6.83396H16.5437V6.83479ZM16.5437 2.07067V5.59441H18.7098C18.9473 5.60147 19.1837 5.55869 19.4037 5.46881C19.6238 5.37892 19.8228 5.24392 19.9879 5.07243C20.1521 4.9121 20.2827 4.72032 20.3719 4.50846C20.461 4.29659 20.507 4.06892 20.507 3.83892C20.507 3.60892 20.461 3.38126 20.3719 3.16939C20.2827 2.95752 20.1521 2.76575 19.9879 2.60541C19.8248 2.4303 19.6266 2.29198 19.4062 2.19962C19.1859 2.10727 18.9485 2.06298 18.7098 2.06971H16.5437V2.07053V2.07067ZM24.7993 3.7902C25.754 3.7902 26.5077 4.04632 27.0602 4.55855C27.6127 5.07092 27.8887 5.77326 27.8882 6.66569V10.9224H26.6527V9.96392H26.5966C26.0616 10.7531 25.3503 11.1479 24.4624 11.1479C23.7045 11.1479 23.0704 10.9224 22.5601 10.4714C22.3153 10.2643 22.1195 10.0051 21.9871 9.71247C21.8547 9.41987 21.789 9.10129 21.7948 8.77996C21.7948 8.06528 22.0638 7.4969 22.6018 7.07485C23.1399 6.65279 23.8583 6.44114 24.7568 6.44018C25.5238 6.44018 26.1554 6.581 26.6518 6.86292V6.56645C26.6533 6.34742 26.6062 6.1308 26.5139 5.93232C26.4216 5.73383 26.2865 5.55844 26.1184 5.41887C25.7768 5.10944 25.3315 4.94061 24.8715 4.94602C24.15 4.94602 23.5791 5.25155 23.1587 5.86261L22.021 5.14339C22.6468 4.24122 23.5728 3.7902 24.7993 3.7902ZM23.1282 8.80824C23.1273 8.97323 23.1658 9.13603 23.2403 9.2831C23.3148 9.43016 23.4232 9.55723 23.5565 9.65373C23.8422 9.87937 24.1969 9.9989 24.5603 9.99206C25.1054 9.99116 25.6278 9.7734 26.0132 9.38649C26.4412 8.98214 26.655 8.50765 26.655 7.96316C26.2523 7.64102 25.6907 7.48002 24.9702 7.48002C24.4455 7.48002 24.008 7.60698 23.6577 7.8609C23.3039 8.11867 23.1282 8.43188 23.1282 8.8081V8.80824ZM34.9805 4.01571L30.6674 13.967H29.334L30.9345 10.4851L28.0983 4.01571H29.5024L31.5522 8.9772H31.5804L33.574 4.01571H34.9805Z" fill="#5F6368"/>
<path d="M11.3246 5.95357C11.3251 5.55828 11.2918 5.16394 11.2252 4.77441H5.77734V7.00796H8.89754C8.83369 7.3647 8.69854 7.70476 8.50025 8.00764C8.30196 8.31053 8.04463 8.56997 7.74377 8.77032V10.22H9.60588C10.6962 9.21077 11.3244 7.71826 11.3244 5.95357H11.3246Z" fill="#4285F4"/>
<path d="M5.77623 11.6206C7.3351 11.6206 8.64773 11.1067 9.6049 10.2207L7.74279 8.77089C7.22436 9.12363 6.5569 9.32512 5.77623 9.32512C4.26959 9.32512 2.99072 8.30532 2.53326 6.9314H0.615234V8.42542C1.09602 9.38588 1.83326 10.1933 2.74463 10.7575C3.656 11.3217 4.70564 11.6205 5.77637 11.6206H5.77623Z" fill="#34A853"/>
<path d="M2.53354 6.93137C2.29178 6.21133 2.29178 5.43159 2.53354 4.71155V3.21753H0.615104C0.210643 4.02551 0 4.91726 0 5.82153C0 6.7258 0.210643 7.61755 0.615104 8.42553L2.53327 6.93137H2.53354Z" fill="#FBBC04"/>
<path d="M5.7765 2.3177C6.6003 2.3042 7.39629 2.61669 7.99244 3.18762L9.64127 1.53233C8.59575 0.54646 7.21065 0.00522982 5.77637 0.0221119C4.70563 0.0221745 3.65598 0.321006 2.7446 0.885244C1.83323 1.44948 1.096 2.25692 0.615234 3.21741L2.5334 4.71143C2.99086 3.3375 4.26973 2.3177 5.77637 2.3177H5.7765Z" fill="#EA4335"/>
</svg>
