<svg width="43" height="14" viewBox="0 0 43 14" fill="none" xmlns="http://www.w3.org/2000/svg">
<path fill-rule="evenodd" clip-rule="evenodd" d="M14.576 0.386777H20.1057L20.1094 2.58817L18.7479 2.58455L21.9769 10.19L25.1513 2.59178H23.7534L23.7497 0.394008L28.1801 0.390395L28.1728 1.64472L22.8433 14C21.5582 14.0036 20.721 13.5409 20.2732 12.5721L15.8866 2.59178H14.5724L14.576 0.386777ZM6.96402 0C10.8119 0 13.9317 3.11954 13.9317 6.96565C13.9317 10.8118 10.8119 13.9277 6.96402 13.9277C3.11979 13.9277 0 10.8118 0 6.96565C0 3.11954 3.11979 0 6.96402 0ZM6.94582 2.2773C9.3703 2.2773 11.3361 4.39917 11.3361 7.01626C11.3361 9.63335 9.3703 11.7516 6.94582 11.7516C4.51769 11.7516 2.5519 9.63335 2.5519 7.01626C2.5519 4.39917 4.51769 2.2773 6.94582 2.2773ZM36.0323 0C39.8802 0 43 3.11954 43 6.96565C43 10.8118 39.8802 13.9277 36.0323 13.9277C32.1881 13.9277 29.0683 10.8118 29.0683 6.96565C29.0683 3.11954 32.1881 0 36.0323 0ZM36.0141 2.2773C38.4386 2.2773 40.4044 4.39917 40.4044 7.01626C40.4044 9.63335 38.4386 11.7516 36.0141 11.7516C33.586 11.7516 31.6202 9.63335 31.6202 7.01626C31.6202 4.39917 33.586 2.2773 36.0141 2.2773Z" fill="#4C3494"/>
</svg>
