<svg width="15" height="18" viewBox="0 0 15 18" fill="none" xmlns="http://www.w3.org/2000/svg">
<path d="M12.7246 1.40103C11.9081 0.454418 10.4323 0.048584 8.54422 0.048584H3.06453C2.87773 0.048591 2.69705 0.116384 2.55499 0.239776C2.41292 0.363167 2.31879 0.534062 2.28951 0.721736L0.00787402 15.4416C-0.0374775 15.7319 0.18348 15.9947 0.472698 15.9947H3.85567L4.70528 10.513L4.67891 10.6847C4.73944 10.2972 5.06522 10.0114 5.451 10.0114H7.05858C10.2167 10.0114 12.6895 8.70658 13.4118 4.93201C13.4333 4.82037 13.4519 4.71172 13.4679 4.60556C13.3767 4.55645 13.3767 4.55645 13.4679 4.60556C13.683 3.21044 13.4664 2.2608 12.7246 1.40103Z" fill="#27346A"/>
<path d="M5.99973 4.10299C6.09222 4.0582 6.19337 4.03498 6.2958 4.03505H10.5918C11.1005 4.03505 11.575 4.06872 12.0086 4.13971C12.1299 4.15939 12.2506 4.18288 12.3705 4.21016C12.5405 4.24831 12.7084 4.29499 12.8738 4.35005C13.087 4.42246 13.2855 4.5068 13.468 4.60556C13.683 3.20991 13.4664 2.2608 12.7246 1.40103C11.9077 0.454418 10.4323 0.048584 8.54422 0.048584H3.06407C2.67823 0.048584 2.34998 0.334319 2.28951 0.721736L0.00787434 15.4411C-0.0374772 15.7318 0.18348 15.9943 0.47223 15.9943H3.85567L5.61834 4.62392C5.63567 4.51216 5.67944 4.40635 5.74588 4.31561C5.81231 4.22487 5.89943 4.1519 5.99973 4.10299Z" fill="#27346A"/>
<path d="M13.4122 4.93216C12.6898 8.7062 10.2171 10.0116 7.05891 10.0116H5.45086C5.06508 10.0116 4.73924 10.2974 4.6793 10.6848L3.62233 17.5007C3.58284 17.7547 3.77596 17.9849 4.02862 17.9849H6.88037C7.04373 17.9849 7.20171 17.9255 7.32591 17.8176C7.45011 17.7096 7.53236 17.5602 7.55789 17.396L7.58567 17.2482L8.12315 13.7832L8.15778 13.5916C8.1833 13.4275 8.26555 13.2781 8.38974 13.1701C8.51392 13.0622 8.67189 13.0028 8.83524 13.0028H9.26203C12.0246 13.0028 14.1877 11.8611 14.8198 8.5594C15.0836 7.17959 14.9471 6.02759 14.2491 5.21843C14.0374 4.97334 13.7745 4.77093 13.4682 4.60571C13.4517 4.7124 13.4337 4.82052 13.4122 4.93216Z" fill="#2790C3"/>
<path d="M12.7122 4.29914C12.5996 4.26568 12.4859 4.23606 12.3713 4.21033C12.2514 4.1835 12.1307 4.16017 12.0094 4.14036C11.5754 4.06889 11.1012 4.03516 10.592 4.03516H6.29658C6.19407 4.03492 6.09284 4.05834 6.00051 4.10364C5.9001 4.1524 5.81288 4.22532 5.74642 4.31609C5.67995 4.40686 5.63624 4.51274 5.61906 4.62457L4.70605 10.5132L4.67969 10.6848C4.73975 10.2974 5.06553 10.0116 5.45137 10.0116H7.05941C10.2175 10.0116 12.6903 8.70675 13.4126 4.93218C13.4341 4.82054 13.4522 4.71236 13.4688 4.60573C13.2858 4.50751 13.0878 4.42263 12.8746 4.35069C12.8208 4.33255 12.7667 4.31536 12.7123 4.29914" fill="#1F264F"/>
</svg>
