<svg width="38" height="12" viewBox="0 0 38 12" fill="none" xmlns="http://www.w3.org/2000/svg">
<path d="M19.6527 3.82082C19.631 5.48578 21.1761 6.41484 22.34 6.96728C23.5358 7.53402 23.9375 7.89749 23.9327 8.40439C23.9238 9.18005 22.9789 9.52241 22.0946 9.53571C20.5519 9.55899 19.6549 9.13002 18.9418 8.80559L18.3861 11.3385C19.1015 11.6596 20.4263 11.9396 21.8001 11.9519C25.0249 11.9519 27.1347 10.4014 27.1461 7.99754C27.1587 4.94665 22.8135 4.77778 22.8432 3.41412C22.8534 3.00063 23.2585 2.55937 24.1462 2.44718C24.5856 2.39051 25.7984 2.34713 27.1736 2.9639L27.7133 0.513302C26.9738 0.251037 26.0233 -9.63211e-05 24.84 -9.63211e-05C21.8047 -9.63211e-05 19.6699 1.57147 19.6527 3.82082ZM32.8994 0.210988C32.3105 0.210988 31.8143 0.545542 31.5928 1.05894L26.9864 11.7719H30.2088L30.8501 10.0458H34.7878L35.1598 11.7719H38L35.5215 0.210988H32.8994ZM33.3502 3.33402L34.2802 7.67528H31.7333L33.3502 3.33402ZM15.7457 0.211132L13.2056 11.7718H16.2763L18.8152 0.210843H15.7457V0.211132ZM11.203 0.210843L8.00687 8.07981L6.71398 1.38916C6.56227 0.642265 5.96318 0.210988 5.29788 0.210988H0.0731797L0 0.546699C1.07261 0.773397 2.29128 1.13904 3.02961 1.53026C3.48145 1.76925 3.6103 1.97817 3.75873 2.54607L6.20751 11.7719H9.4525L14.4275 0.210988H11.203" fill="url(#paint0_linear)"/>
<defs>
<linearGradient id="paint0_linear" x1="17.4701" y1="12.1917" x2="17.8071" y2="-0.0837183" gradientUnits="userSpaceOnUse">
<stop stop-color="#222357"/>
<stop offset="1" stop-color="#254AA5"/>
</linearGradient>
</defs>
</svg>
